<mxfile host="app.diagrams.net" modified="2022-11-25T18:35:28.075Z" agent="5.0 (X11)" etag="UIl2V7hAqmYyuUZYOVWp" version="20.6.0" type="github">
  <diagram name="Page-1" id="52a04d89-c75d-2922-d76d-85b35f80e030">
    <mxGraphModel dx="3138" dy="1658" grid="1" gridSize="10" guides="1" tooltips="1" connect="1" arrows="1" fold="1" page="1" pageScale="1" pageWidth="1100" pageHeight="850" background="none" math="0" shadow="0">
      <root>
        <mxCell id="0" />
        <mxCell id="1" parent="0" />
        <mxCell id="wNNg-IZcb-P15RL3DZSp-5" value="DF2. slots" style="edgeStyle=orthogonalEdgeStyle;rounded=0;orthogonalLoop=1;jettySize=auto;html=1;entryX=1;entryY=0.5;entryDx=0;entryDy=0;exitX=0;exitY=0.5;exitDx=0;exitDy=0;" parent="1" source="L-8i0X_bq5sX4x8zCTeY-6" target="wNNg-IZcb-P15RL3DZSp-3" edge="1">
          <mxGeometry relative="1" as="geometry">
            <mxPoint x="860" y="315" as="sourcePoint" />
          </mxGeometry>
        </mxCell>
        <mxCell id="wNNg-IZcb-P15RL3DZSp-2" value="&lt;div&gt;DF1.&lt;/div&gt;&lt;div&gt;&amp;nbsp;GET Request&lt;/div&gt;" style="edgeStyle=orthogonalEdgeStyle;rounded=0;orthogonalLoop=1;jettySize=auto;html=1;entryX=0;entryY=0;entryDx=0;entryDy=0;exitX=1;exitY=0.25;exitDx=0;exitDy=0;" parent="1" source="17472293e6e8944d-30" target="wNNg-IZcb-P15RL3DZSp-3" edge="1">
          <mxGeometry x="-0.5975" y="3" relative="1" as="geometry">
            <mxPoint x="70" y="465" as="targetPoint" />
            <mxPoint x="1" as="offset" />
          </mxGeometry>
        </mxCell>
        <mxCell id="b664AFQQ280w1uO-jse_-21" value="&lt;div&gt;DF11. &lt;br&gt;&lt;/div&gt;&lt;div&gt;Reservation Code&lt;br&gt;&lt;/div&gt;" style="edgeStyle=orthogonalEdgeStyle;rounded=0;orthogonalLoop=1;jettySize=auto;html=1;exitX=0.75;exitY=0;exitDx=0;exitDy=0;entryX=0;entryY=1;entryDx=0;entryDy=0;" parent="1" source="17472293e6e8944d-30" target="b664AFQQ280w1uO-jse_-20" edge="1">
          <mxGeometry relative="1" as="geometry">
            <Array as="points">
              <mxPoint x="100" y="203" />
            </Array>
          </mxGeometry>
        </mxCell>
        <mxCell id="b664AFQQ280w1uO-jse_-33" value="&lt;div&gt;StudentID&lt;br&gt;&lt;/div&gt;" style="edgeStyle=orthogonalEdgeStyle;rounded=0;orthogonalLoop=1;jettySize=auto;html=1;exitX=0.25;exitY=0;exitDx=0;exitDy=0;entryX=0;entryY=0.5;entryDx=0;entryDy=0;dashed=1;" parent="1" source="17472293e6e8944d-30" target="b664AFQQ280w1uO-jse_-32" edge="1">
          <mxGeometry relative="1" as="geometry" />
        </mxCell>
        <mxCell id="L-8i0X_bq5sX4x8zCTeY-14" value="&lt;div style=&quot;font-size: 11px;&quot;&gt;DF7.&lt;/div&gt;&lt;div style=&quot;font-size: 11px;&quot;&gt;Slot&lt;/div&gt;&lt;div style=&quot;font-size: 11px;&quot;&gt;Email&lt;/div&gt;&lt;div style=&quot;font-size: 11px;&quot;&gt;Verification Code&lt;/div&gt;" style="edgeStyle=orthogonalEdgeStyle;rounded=0;orthogonalLoop=1;jettySize=auto;html=1;exitX=0.5;exitY=1;exitDx=0;exitDy=0;entryX=0;entryY=0;entryDx=0;entryDy=0;fontSize=11;" parent="1" source="17472293e6e8944d-30" target="b664AFQQ280w1uO-jse_-8" edge="1">
          <mxGeometry relative="1" as="geometry">
            <Array as="points">
              <mxPoint x="70" y="527" />
            </Array>
          </mxGeometry>
        </mxCell>
        <mxCell id="17472293e6e8944d-30" value="&lt;div&gt;E1. &lt;br&gt;&lt;/div&gt;&lt;div&gt;User&lt;/div&gt;" style="whiteSpace=wrap;html=1;rounded=0;shadow=0;comic=0;labelBackgroundColor=none;strokeWidth=1;fontFamily=Verdana;fontSize=12;align=center;" parent="1" vertex="1">
          <mxGeometry x="10" y="290" width="120" height="50" as="geometry" />
        </mxCell>
        <mxCell id="wNNg-IZcb-P15RL3DZSp-3" value="&lt;div&gt;P1. &lt;br&gt;&lt;/div&gt;&lt;div&gt;Acceses Website&lt;/div&gt;" style="ellipse;whiteSpace=wrap;html=1;" parent="1" vertex="1">
          <mxGeometry x="330" y="260" width="120" height="80" as="geometry" />
        </mxCell>
        <mxCell id="b664AFQQ280w1uO-jse_-26" value="&lt;div&gt;DF12.&lt;/div&gt;&lt;div&gt;Slot, Reservation Code&lt;br&gt;&lt;/div&gt;" style="edgeStyle=orthogonalEdgeStyle;rounded=0;orthogonalLoop=1;jettySize=auto;html=1;entryX=1;entryY=0.5;entryDx=0;entryDy=0;exitX=0.5;exitY=0;exitDx=0;exitDy=0;" parent="1" source="L-8i0X_bq5sX4x8zCTeY-5" target="b664AFQQ280w1uO-jse_-20" edge="1">
          <mxGeometry x="0.1198" relative="1" as="geometry">
            <mxPoint x="1003" y="205" as="sourcePoint" />
            <mxPoint as="offset" />
          </mxGeometry>
        </mxCell>
        <mxCell id="A_oP5BGXgzZ0BmrNtzkD-9" value="&lt;div&gt;DF3. &lt;br&gt;Available Slots&lt;/div&gt;" style="edgeStyle=orthogonalEdgeStyle;rounded=0;orthogonalLoop=1;jettySize=auto;html=1;entryX=1;entryY=0.75;entryDx=0;entryDy=0;exitX=0;exitY=1;exitDx=0;exitDy=0;" parent="1" source="wNNg-IZcb-P15RL3DZSp-3" target="17472293e6e8944d-30" edge="1">
          <mxGeometry x="-0.2591" y="2" relative="1" as="geometry">
            <mxPoint x="70" y="325" as="targetPoint" />
            <mxPoint x="560" y="345" as="sourcePoint" />
            <mxPoint as="offset" />
          </mxGeometry>
        </mxCell>
        <mxCell id="b664AFQQ280w1uO-jse_-7" value="&lt;div&gt;DF6.&lt;/div&gt;&lt;div&gt;Verification Code&lt;br&gt;&lt;/div&gt;" style="edgeStyle=orthogonalEdgeStyle;rounded=0;orthogonalLoop=1;jettySize=auto;html=1;exitX=0;exitY=1;exitDx=0;exitDy=0;entryX=0.75;entryY=1;entryDx=0;entryDy=0;" parent="1" source="A_oP5BGXgzZ0BmrNtzkD-10" target="17472293e6e8944d-30" edge="1">
          <mxGeometry relative="1" as="geometry">
            <mxPoint x="490" y="395" as="sourcePoint" />
            <mxPoint x="250" y="415" as="targetPoint" />
          </mxGeometry>
        </mxCell>
        <mxCell id="b664AFQQ280w1uO-jse_-9" value="DF5. Verification Code, Email" style="edgeStyle=orthogonalEdgeStyle;rounded=0;orthogonalLoop=1;jettySize=auto;html=1;exitX=1;exitY=0.5;exitDx=0;exitDy=0;" parent="1" source="A_oP5BGXgzZ0BmrNtzkD-10" target="L-8i0X_bq5sX4x8zCTeY-9" edge="1">
          <mxGeometry relative="1" as="geometry">
            <mxPoint x="800" y="535" as="targetPoint" />
          </mxGeometry>
        </mxCell>
        <mxCell id="A_oP5BGXgzZ0BmrNtzkD-10" value="&lt;div style=&quot;font-size: 12px;&quot;&gt;P2. &lt;br style=&quot;font-size: 12px;&quot;&gt;&lt;/div&gt;&lt;div style=&quot;font-size: 12px;&quot;&gt;Email Verification&lt;/div&gt;" style="ellipse;whiteSpace=wrap;html=1;fontSize=12;" parent="1" vertex="1">
          <mxGeometry x="330" y="385" width="120" height="80" as="geometry" />
        </mxCell>
        <mxCell id="b664AFQQ280w1uO-jse_-1" value="DF4. Email Address" style="edgeStyle=orthogonalEdgeStyle;rounded=0;orthogonalLoop=1;jettySize=auto;html=1;entryX=0;entryY=0;entryDx=0;entryDy=0;exitX=1;exitY=1;exitDx=0;exitDy=0;" parent="1" source="17472293e6e8944d-30" target="A_oP5BGXgzZ0BmrNtzkD-10" edge="1">
          <mxGeometry relative="1" as="geometry">
            <mxPoint x="560" y="530" as="targetPoint" />
            <mxPoint x="140" y="325" as="sourcePoint" />
            <Array as="points">
              <mxPoint x="120" y="340" />
              <mxPoint x="120" y="397" />
            </Array>
          </mxGeometry>
        </mxCell>
        <mxCell id="b664AFQQ280w1uO-jse_-14" value="&lt;div&gt;DF9.&lt;/div&gt;&lt;div&gt;Slot, Reservation Code&lt;br&gt;&lt;/div&gt;" style="edgeStyle=orthogonalEdgeStyle;rounded=0;orthogonalLoop=1;jettySize=auto;html=1;exitX=1;exitY=0.5;exitDx=0;exitDy=0;entryX=1;entryY=0.5;entryDx=0;entryDy=0;" parent="1" source="b664AFQQ280w1uO-jse_-8" target="L-8i0X_bq5sX4x8zCTeY-6" edge="1">
          <mxGeometry x="-0.0867" relative="1" as="geometry">
            <mxPoint x="1120" y="435" as="targetPoint" />
            <mxPoint x="1" as="offset" />
          </mxGeometry>
        </mxCell>
        <mxCell id="b664AFQQ280w1uO-jse_-18" value="&lt;div&gt;DF10.&lt;/div&gt;&lt;div&gt;Reservation Code&lt;/div&gt;" style="edgeStyle=orthogonalEdgeStyle;rounded=0;orthogonalLoop=1;jettySize=auto;html=1;entryX=0.25;entryY=1;entryDx=0;entryDy=0;exitX=0;exitY=1;exitDx=0;exitDy=0;" parent="1" source="b664AFQQ280w1uO-jse_-8" target="17472293e6e8944d-30" edge="1">
          <mxGeometry x="-0.21" relative="1" as="geometry">
            <mxPoint x="440" y="935" as="sourcePoint" />
            <mxPoint as="offset" />
          </mxGeometry>
        </mxCell>
        <mxCell id="b664AFQQ280w1uO-jse_-8" value="&lt;div&gt;P3.&lt;/div&gt;&lt;div&gt;Reservation&lt;/div&gt;" style="ellipse;whiteSpace=wrap;html=1;" parent="1" vertex="1">
          <mxGeometry x="330" y="515" width="120" height="80" as="geometry" />
        </mxCell>
        <mxCell id="b664AFQQ280w1uO-jse_-30" value="&lt;div&gt;DF13.&lt;/div&gt;&lt;div&gt;OK/Not OK&lt;/div&gt;" style="edgeStyle=orthogonalEdgeStyle;rounded=0;orthogonalLoop=1;jettySize=auto;html=1;exitX=0;exitY=0;exitDx=0;exitDy=0;entryX=0.5;entryY=0;entryDx=0;entryDy=0;" parent="1" source="b664AFQQ280w1uO-jse_-20" target="17472293e6e8944d-30" edge="1">
          <mxGeometry relative="1" as="geometry" />
        </mxCell>
        <mxCell id="b664AFQQ280w1uO-jse_-20" value="&lt;div&gt;P4.&lt;/div&gt;&lt;div&gt;Check-In&lt;/div&gt;" style="ellipse;whiteSpace=wrap;html=1;" parent="1" vertex="1">
          <mxGeometry x="330" y="135" width="120" height="80" as="geometry" />
        </mxCell>
        <mxCell id="b664AFQQ280w1uO-jse_-32" value="&lt;div&gt;P5.&lt;/div&gt;&lt;div&gt;Payment&lt;br&gt;&lt;/div&gt;" style="ellipse;whiteSpace=wrap;html=1;" parent="1" vertex="1">
          <mxGeometry x="330" y="15" width="120" height="80" as="geometry" />
        </mxCell>
        <mxCell id="b664AFQQ280w1uO-jse_-40" value="DF14.&lt;div&gt;Credit&lt;br&gt;&lt;/div&gt;" style="edgeStyle=orthogonalEdgeStyle;rounded=0;orthogonalLoop=1;jettySize=auto;html=1;exitX=0;exitY=0.5;exitDx=0;exitDy=0;entryX=1;entryY=0.5;entryDx=0;entryDy=0;startArrow=classic;startFill=1;" parent="1" source="L-8i0X_bq5sX4x8zCTeY-23" target="b664AFQQ280w1uO-jse_-32" edge="1">
          <mxGeometry relative="1" as="geometry">
            <mxPoint x="860" y="55" as="sourcePoint" />
          </mxGeometry>
        </mxCell>
        <mxCell id="L-8i0X_bq5sX4x8zCTeY-5" value="&lt;b&gt;DS1. Reservations&lt;br&gt;&lt;/b&gt;" style="swimlane;fontStyle=0;childLayout=stackLayout;horizontal=1;startSize=30;horizontalStack=0;resizeParent=1;resizeParentMax=0;resizeLast=0;collapsible=1;marginBottom=0;whiteSpace=wrap;html=1;" parent="1" vertex="1">
          <mxGeometry x="670" y="255" width="140" height="90" as="geometry" />
        </mxCell>
        <mxCell id="L-8i0X_bq5sX4x8zCTeY-6" value="slots" style="text;strokeColor=none;fillColor=none;align=left;verticalAlign=middle;spacingLeft=4;spacingRight=4;overflow=hidden;points=[[0,0.5],[1,0.5]];portConstraint=eastwest;rotatable=0;whiteSpace=wrap;html=1;" parent="L-8i0X_bq5sX4x8zCTeY-5" vertex="1">
          <mxGeometry y="30" width="140" height="30" as="geometry" />
        </mxCell>
        <mxCell id="L-8i0X_bq5sX4x8zCTeY-7" value="reservationCode" style="text;strokeColor=none;fillColor=none;align=left;verticalAlign=middle;spacingLeft=4;spacingRight=4;overflow=hidden;points=[[0,0.5],[1,0.5]];portConstraint=eastwest;rotatable=0;whiteSpace=wrap;html=1;" parent="L-8i0X_bq5sX4x8zCTeY-5" vertex="1">
          <mxGeometry y="60" width="140" height="30" as="geometry" />
        </mxCell>
        <mxCell id="L-8i0X_bq5sX4x8zCTeY-9" value="&lt;b&gt;DS2. Verification&lt;/b&gt;" style="swimlane;fontStyle=0;childLayout=stackLayout;horizontal=1;startSize=30;horizontalStack=0;resizeParent=1;resizeParentMax=0;resizeLast=0;collapsible=1;marginBottom=0;whiteSpace=wrap;html=1;fontSize=12;" parent="1" vertex="1">
          <mxGeometry x="670" y="380" width="140" height="90" as="geometry" />
        </mxCell>
        <mxCell id="L-8i0X_bq5sX4x8zCTeY-10" value="email" style="text;strokeColor=none;fillColor=none;align=left;verticalAlign=middle;spacingLeft=4;spacingRight=4;overflow=hidden;points=[[0,0.5],[1,0.5]];portConstraint=eastwest;rotatable=0;whiteSpace=wrap;html=1;fontSize=12;" parent="L-8i0X_bq5sX4x8zCTeY-9" vertex="1">
          <mxGeometry y="30" width="140" height="30" as="geometry" />
        </mxCell>
        <mxCell id="L-8i0X_bq5sX4x8zCTeY-11" value="verificationCode" style="text;strokeColor=none;fillColor=none;align=left;verticalAlign=middle;spacingLeft=4;spacingRight=4;overflow=hidden;points=[[0,0.5],[1,0.5]];portConstraint=eastwest;rotatable=0;whiteSpace=wrap;html=1;fontSize=12;" parent="L-8i0X_bq5sX4x8zCTeY-9" vertex="1">
          <mxGeometry y="60" width="140" height="30" as="geometry" />
        </mxCell>
        <mxCell id="L-8i0X_bq5sX4x8zCTeY-21" value="DF8.&lt;br&gt;Email, Verification Code" style="edgeStyle=orthogonalEdgeStyle;rounded=0;orthogonalLoop=1;jettySize=auto;html=1;entryX=1;entryY=0;entryDx=0;entryDy=0;fontSize=11;exitX=0.508;exitY=1.026;exitDx=0;exitDy=0;exitPerimeter=0;" parent="1" source="L-8i0X_bq5sX4x8zCTeY-11" target="b664AFQQ280w1uO-jse_-8" edge="1">
          <mxGeometry relative="1" as="geometry">
            <mxPoint x="930" y="485" as="sourcePoint" />
            <Array as="points">
              <mxPoint x="741" y="527" />
            </Array>
          </mxGeometry>
        </mxCell>
        <mxCell id="L-8i0X_bq5sX4x8zCTeY-22" value="&lt;b&gt;DS3. User&lt;br&gt;&lt;/b&gt;" style="swimlane;fontStyle=0;childLayout=stackLayout;horizontal=1;startSize=30;horizontalStack=0;resizeParent=1;resizeParentMax=0;resizeLast=0;collapsible=1;marginBottom=0;whiteSpace=wrap;html=1;fontSize=11;" parent="1" vertex="1">
          <mxGeometry x="670" y="10" width="140" height="90" as="geometry" />
        </mxCell>
        <mxCell id="L-8i0X_bq5sX4x8zCTeY-23" value="userID" style="text;strokeColor=none;fillColor=none;align=left;verticalAlign=middle;spacingLeft=4;spacingRight=4;overflow=hidden;points=[[0,0.5],[1,0.5]];portConstraint=eastwest;rotatable=0;whiteSpace=wrap;html=1;fontSize=11;" parent="L-8i0X_bq5sX4x8zCTeY-22" vertex="1">
          <mxGeometry y="30" width="140" height="30" as="geometry" />
        </mxCell>
        <mxCell id="L-8i0X_bq5sX4x8zCTeY-24" value="credit" style="text;strokeColor=none;fillColor=none;align=left;verticalAlign=middle;spacingLeft=4;spacingRight=4;overflow=hidden;points=[[0,0.5],[1,0.5]];portConstraint=eastwest;rotatable=0;whiteSpace=wrap;html=1;fontSize=11;" parent="L-8i0X_bq5sX4x8zCTeY-22" vertex="1">
          <mxGeometry y="60" width="140" height="30" as="geometry" />
        </mxCell>
      </root>
    </mxGraphModel>
  </diagram>
</mxfile>
